<?xml version="1.0" encoding="utf-8"?>
<!-- Generator: Adobe Illustrator 17.0.0, SVG Export Plug-In . SVG Version: 6.00 Build 0)  -->
<svg version="1.2" baseProfile="tiny" id="Layer_2" xmlns="http://www.w3.org/2000/svg" xmlns:xlink="http://www.w3.org/1999/xlink"
	 x="0px" y="0px" width="512px" height="512px" viewBox="0 0 512 512" xml:space="preserve">
<g>
	<path fill="#F91717" d="M40.64,503.79h189.916c0.007-0.462,0.034-0.914,0.034-1.379c0-19.127-6.245-35.8-18.725-50.014
		c-13.203-13.49-33.841-30.037-61.924-49.652c-4.804-0.494-10.44-0.735-16.92-0.735c-3.844-0.494-13.686,0-29.526,1.47
		c-15.605,2.207-31.566,5.757-47.883,10.663c-3.844,1.471-9.244,3.678-16.202,6.624c-6.963,3.183-14.042,7.723-21.241,13.605
		c-4.6,4.046-8.716,8.751-12.372,14.086v20.489C5.798,488.173,21.419,503.79,40.64,503.79z"/>
	<path fill="#F91717" d="M129.379,381.452c-5.435-7.147-10.279-14.789-14.53-22.924c-4.964-7.883-7.44-17.374-7.44-28.469
		c0-6.653,0.942-12.203,2.833-16.638c1.655-4.683,3.189-8.992,4.608-12.934c-8.566,0.983-16.639,1.471-24.222,1.471
		c-35.926-0.437-64.201-10.61-84.828-30.501v134.406c18.432-8.446,37.525-14.386,57.278-17.803
		C89.689,384.141,111.791,381.946,129.379,381.452z"/>
	<path fill="#F91717" d="M189.039,205.164c0-29.721-7.601-59.689-22.804-89.905c-7.13-14.49-16.512-26.28-28.153-35.369
		c-11.882-8.595-25.539-13.14-40.982-13.634C76.67,66.75,59.68,74.978,46.144,90.944c-11.422,16.708-16.886,35.375-16.392,56.001
		c0,27.268,7.975,55.645,23.936,85.119c7.721,13.755,17.696,25.424,29.911,35.002c12.215,9.583,26.176,14.369,41.884,14.369
		c19.845-0.735,36.38-7.859,49.612-21.373c6.377-9.577,10.48-19.402,12.301-29.474C188.488,220.522,189.039,212.047,189.039,205.164
		z"/>
	<path fill="#F91717" d="M471.356,8.209h-90.009h-125.32H128.735H40.64c-19.222,0-34.843,15.619-34.843,34.843V80.8v8.982
		c2.195-2.335,4.469-4.654,6.845-6.949c21.43-17.644,43.7-29.164,66.802-34.559c22.867-4.654,44.304-6.987,64.309-6.987h150.76
		l-46.561,27.176h-46.487c4.734,2.942,10.06,7.234,15.978,12.87c5.677,5.883,11.244,13.117,16.691,21.695
		c5.205,8.09,9.819,17.65,13.846,28.681c3.309,11.031,4.97,23.901,4.97,38.609c-0.448,26.969-6.4,48.538-17.857,64.717
		c-5.619,7.848-11.572,15.076-17.857,21.694c-6.964,6.619-14.375,13.364-22.235,20.224c-4.493,4.66-8.647,9.928-12.462,15.812
		c-4.493,6.13-6.739,13.238-6.739,21.327c0,7.849,2.304,14.341,6.912,19.489c3.913,4.907,7.716,9.193,11.405,12.87l25.573,20.959
		c15.892,12.996,29.831,27.331,41.81,43.022c11.29,15.932,17.167,36.771,17.627,62.511c0,10.637-1.378,20.917-4.114,30.848h196.342
		c19.222,0,34.846-15.617,34.846-34.843V80.8V43.052C506.202,23.828,490.578,8.209,471.356,8.209z M498.772,161.93h-79.106v79.106
		h-38.319V161.93h-79.105V123.61h79.105V44.505h38.319v79.106h79.106V161.93z"/>
	<path fill="#FFFFFF" d="M261.501,410.432c-11.979-15.691-25.918-30.026-41.81-43.022l-25.573-20.959
		c-3.688-3.677-7.492-7.963-11.405-12.87c-4.608-5.147-6.912-11.64-6.912-19.489c0-8.089,2.246-15.196,6.739-21.327
		c3.815-5.884,7.969-11.152,12.462-15.812c7.86-6.86,15.271-13.605,22.235-20.224c6.285-6.619,12.238-13.847,17.857-21.694
		c11.456-16.179,17.409-37.748,17.857-64.717c0-14.709-1.66-27.578-4.97-38.609c-4.027-11.031-8.641-20.592-13.846-28.681
		c-5.447-8.578-11.014-15.812-16.691-21.695c-5.918-5.636-11.244-9.928-15.978-12.87h46.487l46.561-27.176h-150.76
		c-20.006,0-41.442,2.333-64.309,6.987c-23.102,5.395-45.372,16.915-66.802,34.559c-2.376,2.296-4.65,4.614-6.845,6.949v181.676
		c20.627,19.892,48.902,30.064,84.828,30.501c7.584,0,15.656-0.488,24.222-1.471c-1.419,3.942-2.953,8.251-4.608,12.934
		c-1.89,4.435-2.833,9.985-2.833,16.638c0,11.095,2.476,20.586,7.44,28.469c4.252,8.136,9.095,15.778,14.53,22.924
		c-17.587,0.494-39.689,2.689-66.302,6.607c-19.754,3.417-38.846,9.358-57.278,17.803v42.596c3.656-5.335,7.772-10.04,12.372-14.086
		c7.199-5.883,14.278-10.422,21.241-13.605c6.958-2.947,12.359-5.153,16.202-6.624c16.317-4.906,32.278-8.457,47.883-10.663
		c15.84-1.47,25.682-1.964,29.526-1.47c6.481,0,12.117,0.241,16.92,0.735c28.084,19.615,48.721,36.162,61.924,49.652
		c12.479,14.214,18.725,30.887,18.725,50.014c0,0.465-0.027,0.918-0.034,1.379h44.457c2.736-9.93,4.114-20.211,4.114-30.848
		C278.668,447.203,272.791,426.365,261.501,410.432z M125.483,281.435c-15.708,0-29.67-4.785-41.884-14.369
		c-12.215-9.578-22.189-21.247-29.911-35.002c-15.961-29.474-23.936-57.851-23.936-85.119c-0.494-20.626,4.97-39.293,16.392-56.001
		C59.68,74.978,76.67,66.75,97.101,66.256c15.444,0.494,29.101,5.039,40.982,13.634c11.64,9.089,21.023,20.879,28.153,35.369
		c15.202,30.215,22.804,60.184,22.804,89.905c0,6.883-0.551,15.358-1.643,25.424c-1.821,10.072-5.923,19.897-12.301,29.474
		C161.863,273.576,145.328,280.7,125.483,281.435z"/>
	<polygon fill="#FFFFFF" points="419.666,44.505 381.347,44.505 381.347,123.61 302.241,123.61 302.241,161.93 381.347,161.93 
		381.347,241.036 419.666,241.036 419.666,161.93 498.772,161.93 498.772,123.61 419.666,123.61 	"/>
</g>
</svg>
